# xmcd CD database file
#
# Track frame offsets:
#	150
#	16780
#	27144
#	42697
#	58887
#	72020
#	85102
#	97554
#	110145
#	123072
#	142342
#	156157
#	170732
#
# Disc length: 2520 seconds
#
# Revision: 0
# Processed by: cddbd v1.5.2PL0 Copyright (c) Steve Scherf et al.
# Submitted via: CDex 1.70beta2
#
DISCID=ab09d60d
DTITLE=Fate McCobb - Hillbilly Death Songs
DYEAR=1900
DGENRE=Country
TTITLE0=Calling in Dead
TTITLE1=Lay Your Hoe Down
TTITLE2=Rock Salt and Nails
TTITLE3=Hangman's Boogie
TTITLE4=Shoes and Dress That Alice Wore
TTITLE5=Miller's Cave
TTITLE6=Chicken Road
TTITLE7=Waiting for the River to Rise
TTITLE8=Long Black Limousine
TTITLE9=Thirteen Steps Away
TTITLE10=Widowmaker
TTITLE11=Wreck on the Highway
TTITLE12=Too Many Pills
EXTD=
EXTT0=
EXTT1=
EXTT2=
EXTT3=
EXTT4=
EXTT5=
EXTT6=
EXTT7=
EXTT8=
EXTT9=
EXTT10=
EXTT11=
EXTT12=
PLAYORDER=
